<?xml version="1.0" encoding="UTF-8" standalone="no"?>
<!-- Created with Inkscape (http://www.inkscape.org/) -->

<svg
   xmlns:dc="http://purl.org/dc/elements/1.1/"
   xmlns:cc="http://creativecommons.org/ns#"
   xmlns:rdf="http://www.w3.org/1999/02/22-rdf-syntax-ns#"
   xmlns:svg="http://www.w3.org/2000/svg"
   xmlns="http://www.w3.org/2000/svg"
   xmlns:sodipodi="http://sodipodi.sourceforge.net/DTD/sodipodi-0.dtd"
   xmlns:inkscape="http://www.inkscape.org/namespaces/inkscape"
   width="744.09003"
   height="1052.3622"
   id="svg3339"
   version="1.1"
   inkscape:version="0.48.4 r9939"
   sodipodi:docname="New document 1">
  <defs
     id="defs3341" />
  <sodipodi:namedview
     id="base"
     pagecolor="#ffffff"
     bordercolor="#666666"
     borderopacity="1.0"
     inkscape:pageopacity="0.0"
     inkscape:pageshadow="2"
     inkscape:zoom="0.35"
     inkscape:cx="375"
     inkscape:cy="520"
     inkscape:document-units="px"
     inkscape:current-layer="layer1"
     showgrid="false"
     showborder="false"
     inkscape:showpageshadow="false"
     inkscape:window-width="944"
     inkscape:window-height="1042"
     inkscape:window-x="960"
     inkscape:window-y="0"
     inkscape:window-maximized="0" />
  <metadata
     id="metadata3344">
    <rdf:RDF>
      <cc:Work
         rdf:about="">
        <dc:format>image/svg+xml</dc:format>
        <dc:type
           rdf:resource="http://purl.org/dc/dcmitype/StillImage" />
        <dc:title></dc:title>
      </cc:Work>
    </rdf:RDF>
  </metadata>
  <g
     inkscape:label="Layer 1"
     inkscape:groupmode="layer"
     id="layer1">
    <path
       id="path4202"
       d="m 11.147356,-238.49257 c -12.0623073,2.25115 -23.1118,9.97391 -29.025923,20.73508 C -147.84262,9.9615367 -407.68242,465.43788 -407.68242,465.43788 c -14.7199,25.13957 7.15355,63.15532 36.288,63.23618 l 148.24904,-1.03196 582.62959,-2.11182 1.03199,0 364.92502,-2.06286 -145.14366,255.02785 c -171.40232,0.6809 -342.80253,1.48518 -514.209093,2.11182 l 94.337773,-164.84242 -114.031339,0 -245.702911,418.82973 c 302.72497,1.1288 908.15796,0 908.15796,0 12.07084,-2.2501 23.12353,-9.9675 29.02806,-20.7308 129.96405,-227.71473 389.80389,-683.19002 389.80389,-683.19002 14.7199,-25.14277 -7.1493,-63.15852 -36.2827,-63.24152 l -148.24904,1.03196 -582.63396,2.11182 -1.03199,0 L -5.4375251,272.68552 139.70071,17.657672 c 171.40657,-0.680897 342.80678,-1.485186 514.20816,-2.111819 l -94.33789,164.842417 114.03462,0 245.69974,-418.82977 c -302.72294,-1.12879 -908.157984,0 -908.157984,0 z"
       style="font-size:medium;font-style:normal;font-variant:normal;font-weight:normal;font-stretch:normal;text-indent:0;text-align:start;text-decoration:none;line-height:normal;letter-spacing:normal;word-spacing:normal;text-transform:none;direction:ltr;block-progression:tb;writing-mode:lr-tb;text-anchor:start;baseline-shift:baseline;color:#000000;fill:#2366ff;fill-opacity:1;fill-rule:nonzero;stroke:none;stroke-width:2.61559033;marker:none;visibility:visible;display:inline;overflow:visible;enable-background:accumulate;font-family:Sans;-inkscape-font-specification:Sans"
       inkscape:connector-curvature="0"
       inkscape:export-filename="E:\Libraries\My Pictures\Graphic Design\shift\sheet.png"
       inkscape:export-xdpi="201.09949"
       inkscape:export-ydpi="201.09949" />
  </g>
</svg>
